<svg width="948" height="486" viewBox="0 0 948 486" class="keymap" xmlns="http://www.w3.org/2000/svg" xmlns:xlink="http://www.w3.org/1999/xlink">
<style>/* inherit to force styles through use tags */
svg path {
    fill: inherit;
}

/* font and background color specifications */
svg.keymap {
    font-family: SFMono-Regular,Consolas,Liberation Mono,Menlo,monospace;
    font-size: 14px;
    font-kerning: normal;
    text-rendering: optimizeLegibility;
    fill: #24292e;
}

/* default key styling */
rect.key {
    fill: #f6f8fa;
}

rect.key, rect.combo {
    stroke: #c9cccf;
    stroke-width: 1;
}

/* default key side styling, only used is draw_key_sides is set */
rect.side {
    filter: brightness(90%);
}

/* color accent for combo boxes */
rect.combo, rect.combo-separate {
    fill: #cdf;
}

/* color accent for held keys */
rect.held, rect.combo.held {
    fill: #fdd;
}

/* color accent for ghost (optional) keys */
rect.ghost, rect.combo.ghost {
    stroke-dasharray: 4, 4;
    stroke-width: 2;
}

text {
    text-anchor: middle;
    dominant-baseline: middle;
}

/* styling for layer labels */
text.label {
    font-weight: bold;
    text-anchor: start;
    stroke: white;
    stroke-width: 4;
    paint-order: stroke;
}

/* styling for optional footer */
text.footer {
    text-anchor: end;
    dominant-baseline: auto;
    stroke: white;
    stroke-width: 4;
    paint-order: stroke;
}

/* styling for combo tap, and key hold/shifted label text */
text.combo, text.hold, text.shifted {
    font-size: 11px;
}

text.hold {
    text-anchor: middle;
    dominant-baseline: auto;
}

text.shifted {
    text-anchor: middle;
    dominant-baseline: hanging;
}

text.layer-activator {
    text-decoration: underline;
}

/* styling for hold/shifted label text in combo box */
text.combo.hold, text.combo.shifted {
    font-size: 8px;
}

/* lighter symbol for transparent keys */
text.trans {
    fill: #7b7e81;
}

/* styling for combo dendrons */
path.combo {
    stroke-width: 1;
    stroke: gray;
    fill: none;
}

/* Start Tabler Icons Cleanup */
/* cannot use height/width with glyphs */
.icon-tabler > path {
    fill: inherit;
    stroke: inherit;
    stroke-width: 2;
}
/* hide tabler's default box */
.icon-tabler > path[stroke="none"][fill="none"] {
    visibility: hidden;
}
/* End Tabler Icons Cleanup */


svg.keymap { background-color: #FFF; }</style>
<g transform="translate(30, 0)" class="layer-Mac MEH Shortcuts">
<text x="0" y="28" class="label" id="Mac-MEH-Shortcuts">Mac MEH Shortcuts:</text>
<g transform="translate(0, 56)">
<g transform="translate(37, 107)" class="key keypos-0">
<rect rx="6" ry="6" x="-35" y="-35" width="70" height="70" class="key"/>
<text x="0" y="0" class="key tap"><tspan style="font-size: 78%">1Password</tspan></text>
</g>
<g transform="translate(111, 61)" class="key keypos-1">
<rect rx="6" ry="6" x="-35" y="-35" width="70" height="70" class="key"/>
<text x="0" y="0" class="key tap">Brave</text>
</g>
<g transform="translate(185, 37)" class="key keypos-2">
<rect rx="6" ry="6" x="-35" y="-35" width="70" height="70" class="key"/>
<text x="0" y="0" class="key tap"><tspan style="font-size: 88%">Obsidian</tspan></text>
</g>
<g transform="translate(259, 58)" class="key keypos-3">
<rect rx="6" ry="6" x="-35" y="-35" width="70" height="70" class="key"/>
<text x="0" y="0" class="key tap">Alfred</text>
</g>
<g transform="translate(333, 68)" class="key keypos-4">
<rect rx="6" ry="6" x="-35" y="-35" width="70" height="70" class="key"/>
<text x="0" y="0" class="key tap">Zoom</text>
</g>
<g transform="translate(555, 68)" class="key keypos-5">
<rect rx="6" ry="6" x="-35" y="-35" width="70" height="70" class="key"/>
<text x="0" y="0" class="key tap">1/6-2/3</text>
<text x="0" y="33" class="key hold"><tspan style="font-size: 88%">top-left</tspan></text>
</g>
<g transform="translate(629, 58)" class="key keypos-6">
<rect rx="6" ry="6" x="-35" y="-35" width="70" height="70" class="key"/>
<text x="0" y="0" class="key tap">1/3</text>
<text x="0" y="33" class="key hold">left</text>
</g>
<g transform="translate(703, 37)" class="key keypos-7">
<rect rx="6" ry="6" x="-35" y="-35" width="70" height="70" class="key"/>
<text x="0" y="0" class="key tap">1/3</text>
<text x="0" y="33" class="key hold">center</text>
</g>
<g transform="translate(777, 61)" class="key keypos-8">
<rect rx="6" ry="6" x="-35" y="-35" width="70" height="70" class="key"/>
<text x="0" y="0" class="key tap">1/3</text>
<text x="0" y="33" class="key hold">right</text>
</g>
<g transform="translate(851, 107)" class="key keypos-9">
<rect rx="6" ry="6" x="-35" y="-35" width="70" height="70" class="key"/>
<text x="0" y="0" class="key tap">1/6-2/3</text>
<text x="0" y="33" class="key hold"><tspan style="font-size: 78%">top-right</tspan></text>
</g>
<g transform="translate(37, 181)" class="key keypos-10">
<rect rx="6" ry="6" x="-35" y="-35" width="70" height="70" class="key"/>
<text x="0" y="0" class="key tap">Harvest</text>
</g>
<g transform="translate(111, 135)" class="key keypos-11">
<rect rx="6" ry="6" x="-35" y="-35" width="70" height="70" class="key"/>
<text x="0" y="0" class="key tap">Things</text>
</g>
<g transform="translate(185, 111)" class="key keypos-12">
<rect rx="6" ry="6" x="-35" y="-35" width="70" height="70" class="key"/>
<text x="0" y="0" class="key tap"><tspan style="font-size: 88%">Terminal</tspan></text>
</g>
<g transform="translate(259, 132)" class="key keypos-13">
<rect rx="6" ry="6" x="-35" y="-35" width="70" height="70" class="key"/>
<text x="0" y="0" class="key tap">Slack</text>
</g>
<g transform="translate(333, 142)" class="key keypos-14">
<rect rx="6" ry="6" x="-35" y="-35" width="70" height="70" class="key"/>
<text x="0" y="0" class="key tap">Chrome</text>
</g>
<g transform="translate(555, 142)" class="key keypos-15">
<rect rx="6" ry="6" x="-35" y="-35" width="70" height="70" class="key"/>
<text x="0" y="0" class="key tap">2/3</text>
<text x="0" y="33" class="key hold">left</text>
</g>
<g transform="translate(629, 132)" class="key keypos-16">
<rect rx="6" ry="6" x="-35" y="-35" width="70" height="70" class="key"/>
<text x="0" y="0" class="key tap">1/2</text>
<text x="0" y="33" class="key hold">left</text>
</g>
<g transform="translate(703, 111)" class="key keypos-17">
<rect rx="6" ry="6" x="-35" y="-35" width="70" height="70" class="key"/>
<text x="0" y="0" class="key tap">center</text>
<text x="0" y="33" class="key hold">app</text>
</g>
<g transform="translate(777, 135)" class="key keypos-18">
<rect rx="6" ry="6" x="-35" y="-35" width="70" height="70" class="key"/>
<text x="0" y="0" class="key tap">2/3</text>
<text x="0" y="33" class="key hold">center</text>
</g>
<g transform="translate(851, 181)" class="key keypos-19">
<rect rx="6" ry="6" x="-35" y="-35" width="70" height="70" class="key"/>
<text x="0" y="0" class="key tap">1/2</text>
<text x="0" y="33" class="key hold">right</text>
</g>
<g transform="translate(37, 255)" class="key keypos-20">
<rect rx="6" ry="6" x="-35" y="-35" width="70" height="70" class="key"/>
</g>
<g transform="translate(111, 209)" class="key keypos-21">
<rect rx="6" ry="6" x="-35" y="-35" width="70" height="70" class="key"/>
<text x="0" y="0" class="key tap"><tspan style="font-size: 88%">HazeOver</tspan></text>
</g>
<g transform="translate(185, 185)" class="key keypos-22">
<rect rx="6" ry="6" x="-35" y="-35" width="70" height="70" class="key"/>
<text x="0" y="0" class="key tap">Mail</text>
</g>
<g transform="translate(259, 206)" class="key keypos-23">
<rect rx="6" ry="6" x="-35" y="-35" width="70" height="70" class="key"/>
<text x="0" y="0" class="key tap">
<tspan x="0" dy="-0.6em">VS</tspan><tspan x="0" dy="1.2em">Code</tspan>
</text>
</g>
<g transform="translate(333, 216)" class="key keypos-24">
<rect rx="6" ry="6" x="-35" y="-35" width="70" height="70" class="key"/>
</g>
<g transform="translate(555, 216)" class="key keypos-25">
<rect rx="6" ry="6" x="-35" y="-35" width="70" height="70" class="key"/>
<text x="0" y="0" class="key tap">1/6-1/3</text>
<text x="0" y="33" class="key hold"><tspan style="font-size: 64%">bottom-left</tspan></text>
</g>
<g transform="translate(629, 206)" class="key keypos-26">
<rect rx="6" ry="6" x="-35" y="-35" width="70" height="70" class="key"/>
<text x="0" y="0" class="key tap">1/6</text>
<text x="0" y="33" class="key hold">left</text>
</g>
<g transform="translate(703, 185)" class="key keypos-27">
<rect rx="6" ry="6" x="-35" y="-35" width="70" height="70" class="key"/>
<text x="0" y="0" class="key tap">2/3</text>
<text x="0" y="33" class="key hold">right</text>
</g>
<g transform="translate(777, 209)" class="key keypos-28">
<rect rx="6" ry="6" x="-35" y="-35" width="70" height="70" class="key"/>
<text x="0" y="0" class="key tap">1/6</text>
<text x="0" y="33" class="key hold">right</text>
</g>
<g transform="translate(851, 255)" class="key keypos-29">
<rect rx="6" ry="6" x="-35" y="-35" width="70" height="70" class="key"/>
<text x="0" y="0" class="key tap">1/6-1/3</text>
<text x="0" y="33" class="key hold"><tspan style="font-size: 64%">bottom-rig…</tspan></text>
</g>
<g transform="translate(292, 291) rotate(15.0)" class="key keypos-30">
<rect rx="6" ry="6" x="-35" y="-35" width="70" height="70" class="key"/>
<text x="0" y="0" class="key tap">⎵</text>
<text x="0" y="33" class="key hold"> </text>
</g>
<g transform="translate(369, 323) rotate(30.0)" class="key keypos-31">
<rect rx="6" ry="6" x="-35" y="-35" width="70" height="70" class="key"/>
<text x="0" y="0" class="key tap">★</text>
</g>
<g transform="translate(519, 323) rotate(-30.0)" class="key keypos-32">
<rect rx="6" ry="6" x="-35" y="-35" width="70" height="70" class="key"/>
<text x="0" y="0" class="key tap">
<tspan x="0" dy="-0.6em">Reset</tspan><tspan x="0" dy="1.2em">size</tspan>
</text>
</g>
<g transform="translate(596, 291) rotate(-15.0)" class="key keypos-33">
<rect rx="6" ry="6" x="-35" y="-35" width="70" height="70" class="key"/>
<text x="0" y="0" class="key tap">
<tspan x="0" dy="-0.6em">Full</tspan><tspan x="0" dy="1.2em">size</tspan>
</text>
</g>
</g>
</g>
<text x="918.0" y="458.0" class="footer">Created with <a href="https://github.com/caksoylar/keymap-drawer">keymap-drawer</a></text></svg>
